<?xml version="1.0" standalone="no"?>
<!DOCTYPE svg PUBLIC "-//W3C//DTD SVG 20010904//EN"
 "http://www.w3.org/TR/2001/REC-SVG-20010904/DTD/svg10.dtd">
<svg version="1.0" xmlns="http://www.w3.org/2000/svg"
 width="700.000000pt" height="700.000000pt" viewBox="0 0 700.000000 700.000000"
 preserveAspectRatio="xMidYMid meet">
<metadata>
Created by potrace 1.14, written by Peter Selinger 2001-2017
</metadata>
<g transform="translate(0.000000,700.000000) scale(0.100000,-0.100000)"
fill="#000000" stroke="none">
<path d="M3758 6485 c-2 -2 -37 -6 -78 -9 -210 -19 -347 -56 -530 -143 -339
-162 -603 -447 -773 -836 -51 -116 -123 -322 -134 -382 -10 -54 -8 -202 3
-300 5 -44 9 -130 9 -191 0 -100 -2 -114 -24 -145 -53 -77 -187 -154 -324
-184 -79 -17 -104 -36 -91 -69 7 -17 89 -72 148 -99 55 -25 187 -57 234 -57
37 0 52 -11 52 -40 0 -20 -55 -71 -105 -96 -87 -44 -92 -91 -13 -113 62 -16
85 -19 158 -20 l64 -1 -50 -26 c-135 -69 -204 -176 -289 -449 -21 -66 -42
-125 -47 -131 -12 -16 -46 -6 -59 18 -6 10 -46 69 -91 130 -44 60 -89 125
-100 144 -22 37 -48 43 -69 17 -11 -12 -14 -61 -14 -217 0 -222 7 -317 31
-451 9 -49 17 -124 18 -166 1 -68 -2 -79 -27 -112 -66 -86 -121 -82 -372 31
-126 56 -317 168 -404 237 -149 119 -316 277 -402 383 -28 34 -57 62 -65 62
-18 0 -46 -43 -40 -61 2 -8 7 -51 10 -95 11 -159 62 -355 153 -599 171 -455
435 -834 828 -1189 85 -77 278 -222 312 -233 20 -7 56 -10 86 -7 45 5 55 3 72
-16 19 -21 20 -37 20 -342 l0 -319 99 -49 c170 -84 427 -184 581 -225 33 -9
83 -22 111 -30 65 -18 293 -63 359 -70 28 -4 57 -8 65 -10 101 -26 826 -26
869 -1 3 2 29 6 56 10 105 13 248 42 385 77 295 78 539 175 818 326 l122 67 0
46 c1 128 38 250 127 427 55 108 135 197 264 295 240 182 386 360 528 646 34
67 61 124 61 127 0 3 9 24 19 48 95 207 160 463 177 693 5 65 3 82 -10 93 -18
15 -46 11 -57 -9 -95 -169 -133 -222 -236 -326 -87 -89 -179 -154 -286 -204
-76 -35 -185 -70 -217 -70 -15 0 -5 66 19 117 64 136 86 343 68 618 -9 130
-20 171 -48 178 -31 8 -41 1 -81 -61 -80 -124 -393 -450 -413 -430 -12 12 -76
237 -78 277 -2 25 5 75 15 111 19 67 73 309 82 370 3 19 7 44 10 55 14 69 26
239 31 415 5 224 16 273 98 452 59 127 72 189 72 333 -1 123 -13 203 -70 469
-3 11 -14 65 -25 120 -37 180 -69 264 -202 531 -112 224 -185 298 -369 371
-51 21 -148 66 -216 101 -262 135 -433 180 -710 187 -62 1 -114 2 -115 1z m-3
-299 c38 -29 42 -46 6 -26 -36 19 -106 14 -153 -10 -48 -24 -284 -259 -348
-344 -54 -74 -78 -88 -102 -59 -9 11 -13 57 -14 152 -1 86 -6 145 -13 159
l-12 23 -19 -23 c-10 -13 -35 -52 -55 -86 -20 -34 -38 -62 -42 -62 -12 0 10
77 35 123 48 90 110 120 291 143 25 3 47 7 50 9 3 1 38 6 76 10 39 4 88 10
110 14 81 15 151 6 190 -23z m817 -46 c115 -15 229 -38 255 -52 36 -18 45 -57
38 -155 -4 -48 -8 -121 -11 -162 -5 -93 -14 -101 -105 -95 -90 6 -109 11 -129
29 -40 36 -23 49 141 109 53 19 64 38 68 113 3 65 -23 98 -72 90 -36 -6 -215
-70 -327 -117 -128 -54 -176 -42 -204 51 -25 82 -5 154 51 186 30 17 49 20
123 17 49 -1 126 -8 172 -14z m-913 -2306 c90 -22 173 -59 258 -116 97 -65
102 -85 39 -146 -36 -34 -46 -51 -42 -66 29 -110 30 -125 12 -145 -10 -11 -40
-27 -66 -36 -52 -17 -66 -35 -50 -66 10 -17 25 -24 75 -31 31 -5 31 -43 0 -74
-21 -21 -32 -25 -58 -20 -40 8 -227 97 -227 108 0 4 -5 8 -11 8 -19 0 -122 86
-206 171 -168 173 -180 192 -142 220 67 50 79 62 85 84 6 23 -23 78 -51 97 -5
4 -8 8 -5 9 3 0 16 3 30 5 125 24 256 23 359 -2z m801 -60 c31 -5 39 -10 36
-23 -3 -9 -8 -29 -11 -46 -13 -60 -27 -82 -61 -98 -55 -27 -80 -22 -130 26
-35 33 -46 51 -51 83 -4 35 -2 44 18 58 24 17 89 17 199 0z m-1980 -91 c17 -9
34 -31 39 -48 20 -62 34 -372 35 -760 0 -358 -4 -411 -55 -607 -41 -161 -37
-178 113 -459 46 -86 74 -162 88 -237 14 -79 19 -211 8 -218 -4 -3 -8 3 -8 14
0 39 -29 51 -125 50 -75 -1 -97 2 -134 22 -50 25 -55 30 -93 80 -46 61 -64
191 -93 665 -18 288 -48 546 -82 700 -67 307 -73 387 -42 510 22 89 79 193
134 248 61 61 152 78 215 40z"/>
</g>
</svg>
