<svg xmlns="http://www.w3.org/2000/svg" height="58" width="58" viewBox="0 0 150.81 150.81"><defs><style>.cls-1{fill:#d54a4e;opacity:0;}.cls-2{fill:#fbe743;}</style></defs><g id="レイヤー_2" data-name="レイヤー 2"><g id="レイヤー_1-2" data-name="レイヤー 1"><circle class="cls-1" cx="75.4" cy="75.4" r="75.4"/><path class="cls-2" d="M114.64,139.8a14.76,14.76,0,0,1,.85-5.74c1.32-3.84,3.16-7.64,7.11-10.33,7-4.76,11.28-11.9,14.26-19.76A42.65,42.65,0,0,0,140,90.34c0-.64.31-1.54-.54-1.79s-1.08.62-1.38,1.21a26,26,0,0,1-4.38,6A20.54,20.54,0,0,1,122.38,102a4.27,4.27,0,0,1,.63-2.55c2-4.94,1.8-10.07,1.27-15.21-.08-.76,0-1.87-1-2.07s-1.1.87-1.54,1.44a65.68,65.68,0,0,1-7.8,8.53c-.4.37-1.23,1.12-1.41.26-.55-2.47-2-4.89-1.25-7.49a67.66,67.66,0,0,0,2.82-19.67,16.19,16.19,0,0,1,1.84-8.09A16,16,0,0,0,117.66,47c-.53-3.95-1.52-7.84-2.28-11.76-.72-3.68-2.62-6.91-4.16-10.24-1.42-3.05-3.46-6-6.81-7.29a45.31,45.31,0,0,1-5.78-2.59C92,11.32,84.71,10.49,77.3,11.49a31.74,31.74,0,0,0-17.53,8.43C54.06,25.23,50.91,32,48.64,39.33c-1.3,4.18.18,8.41.09,12.63a4,4,0,0,1-1.47,3.32A13.66,13.66,0,0,1,41,58.34c-.7.14-1.73,0-1.91.92S40,60.51,40.65,61c1.7,1.27,3.73,1.58,5.71,2.08.72.18,2-.45,2.08.67.1.87-.87,1.53-1.64,2-.38.24-.81.41-1.21.61s-.94.56-.86,1.19.59.81,1.12,1a15.68,15.68,0,0,0,5.23.33c-4.3,1.36-5.89,4.83-7.14,8.58-.38,1.15-.74,2.3-1.12,3.45-.16.49-.13,1.17-.77,1.27s-.86-.53-1.16-1c-1.16-1.58-2.3-3.19-3.47-4.77C37,75.88,36.86,74.76,36,75s-.84,1.39-.86,2.12a66,66,0,0,0,1.24,15.56,3.63,3.63,0,0,1-.71,3.13c-1.48,2.06-3.29,1.12-4.91.54-8.27-3-14.91-8.22-20.6-14.78-.42-.48-.7-1.43-1.5-1.15s-.54,1.31-.51,2c.23,5.14,1.81,10,3.59,14.71,4.59,12.07,12.54,21.63,22.84,29.29.86.63,1.79,1.33,2.91,1.05,2.21-.56,2.59.52,2.56,2.4q-.09,6.06-.07,12.12a75.41,75.41,0,0,0,74.7-2.15ZM58.38,122.28c-.07-2.21-1.26-2.25-2.9-2a5.21,5.21,0,0,1-5.8-4.29c-.72-4.52-.84-9.12-1.2-13.69-.29-3.57-.52-7.18-1.09-10.73-.48-3-1.35-5.91-1.75-8.89A12.39,12.39,0,0,1,48,73.22,4.69,4.69,0,0,1,51.71,71c1.67,0,2.65.67,2.81,2.51A213.69,213.69,0,0,1,55,95.26a32.05,32.05,0,0,1-1.45,7.79A6,6,0,0,0,54,107.4c1.68,3.59,4.17,6.88,4.38,11.07A13.44,13.44,0,0,1,58.38,122.28Zm36.6-49a2.12,2.12,0,0,1-2.27-.42c-.74-.75-1.51-1.57-1.35-2.7.13-.9,1-1.07,1.77-1,1.25.1,2.5.28,3.93.45C96.21,70.84,97,72.71,95,73.26ZM93.17,18.2a15.42,15.42,0,0,1,2,0,54.66,54.66,0,0,1,7.86,1.1,2,2,0,0,1,1.87,2.34c-.16,1.95-.26,3.91-.35,5.87,0,.78-.45,1.07-1.17,1.07a3,3,0,0,1-.9,0c-1.16-.34-3.06.14-3.28-1.24-.15-.95,1.73-1.09,2.73-1.53.8-.36,1.89-.36,2-1.53.11-1,.43-2.07-.32-2.83s-1.74-.15-2.55.13c-2.29.79-4.56,1.63-6.78,2.58-1.93.83-2.87,0-3.33-1.73C90.42,20.13,91.31,18.43,93.17,18.2ZM68.41,27.26c-.9-.23-.61-1.09-.67-1.73-.16-1.82.37-3.72-.43-5.69-1.4,1-1.55,2.74-2.74,3.8.27-2.76,1.83-4.94,4.12-5.37,3.11-.59,6.27-1,9.42-1.37a3.66,3.66,0,0,1,3.77,1.57c-2.6-1.44-4.5-.41-6.24,1.48-1.94,2.12-4.19,3.94-5.83,6.34C69.47,26.78,69.1,27.43,68.41,27.26ZM70,74c-.4-.46-1.1-1.27-.17-1.71,2.34-1.11,2.42-2.45.57-4,5.14-1.15,9.82-.51,14.11,2.45,2.15,1.49,2.27,1.88.32,3.48a1.17,1.17,0,0,0-.43,1.57c.85,1.75.8,3.06-1.5,3.46a1,1,0,0,0-.94,1.1c0,.56.49.68.93.84s1.65-.35,1.27.93a1.46,1.46,0,0,1-2.09,1.09A22.49,22.49,0,0,1,73.74,78,46.21,46.21,0,0,1,70,74Z"/></g></g></svg>